# xmcd
#
# Track frame offsets: 
#        150
#        21152
#        42812
#        61092
#        86210
#        111747
#        136822
#        164940
#        212620
#        231730
#
# Disc length: 3789 seconds
#
# Revision: 1
# Processed by: cddbd v1.5.2PL0 Copyright (c) Steve Scherf et al.
# Submitted via: ExactAudioCopy v1.0b3
#
DISCID=950ecb0a
DTITLE=Bob Walsh - En Spectacle - Live
DYEAR=1998
DGENRE=Blues
TTITLE0=I'm Ready
TTITLE1=Too Tired
TTITLE2=Ain't No Sunshine
TTITLE3=These Days
TTITLE4=You Don't Love Me
TTITLE5=Ma Toune
TTITLE6=Mostly Down
TTITLE7=Call the Doctor \\ Summertime
TTITLE8=I'm Tired
TTITLE9=The City
EXTD=
EXTT0=
EXTT1=
EXTT2=
EXTT3=
EXTT4=
EXTT5=
EXTT6=
EXTT7=
EXTT8=
EXTT9=
PLAYORDER=
